<svg xmlns="http://www.w3.org/2000/svg" viewBox="0 0 500 500"><g id="freepik--background-simple--inject-32"><path d="M166.19,77.92S90.42,116.52,52.63,176,17.83,312,63.75,368.8s133.69,49.34,207.18,85.32,154.57,28.57,189.32-47.66S442.6,301.74,433.6,213.52,345.07-3.88,166.19,77.92Z" style="fill:#92E3A9"></path><path d="M166.19,77.92S90.42,116.52,52.63,176,17.83,312,63.75,368.8s133.69,49.34,207.18,85.32,154.57,28.57,189.32-47.66S442.6,301.74,433.6,213.52,345.07-3.88,166.19,77.92Z" style="fill:#fff;opacity:0.7000000000000001"></path></g><g id="freepik--Clouds--inject-32"><path d="M368.36,90.82c-7.54-4.11-11-.68-13.71-4.11s7.54-12.34-13-21.25c0,0-1.37-19.19-29.48-19.88s-20.56,19.2-28.1,24-9.6-2.74-17.14,2.06S262.8,86,256.63,87.4s-14.4-6.17-21.94-1.37-7.54,8.91-11,8.91-10.29-2.74-14.4,0-8.91,6.17-8.91,6.17H373.85S375.9,94.94,368.36,90.82Z" style="fill:none;stroke:#263238;stroke-linecap:round;stroke-linejoin:round"></path><path d="M265.77,88a23,23,0,0,1-3.06,1.44" style="fill:none;stroke:#263238;stroke-linecap:round;stroke-linejoin:round"></path><path d="M302.87,56a11.68,11.68,0,0,0-6.69,8.36c-1.26,6.28-4.19,10.46-7.53,10.88s-15.9-.84-18,3.77a18,18,0,0,0-1.17,4.2" style="fill:none;stroke:#263238;stroke-linecap:round;stroke-linejoin:round"></path><path d="M199.06,140.1c-3.95-2.15-5.75-.36-7.19-2.15s3.95-6.47-6.83-11.15c0,0-.72-10.06-15.45-10.42S158.8,126.44,154.85,129s-5-1.44-9,1.08-2.15,7.55-5.39,8.27-7.55-3.24-11.5-.72-4,4.67-5.75,4.67-5.39-1.44-7.55,0-4.67,3.23-4.67,3.23h90.93S203,142.26,199.06,140.1Z" style="fill:none;stroke:#263238;stroke-linecap:round;stroke-linejoin:round"></path><path d="M145.27,138.63a14,14,0,0,1-1.61.75" style="fill:none;stroke:#263238;stroke-linecap:round;stroke-linejoin:round"></path><path d="M164.72,121.84a6.12,6.12,0,0,0-3.51,4.38c-.66,3.29-2.19,5.49-4,5.71s-8.33-.44-9.43,2a10,10,0,0,0-.62,2.2" style="fill:none;stroke:#263238;stroke-linecap:round;stroke-linejoin:round"></path></g><g id="freepik--Trees--inject-32"><path d="M316.65,215.32s47.13,4.67,71,33.88c0,0,25.24-33.84,70.57-33.15a91.6,91.6,0,1,0-141.59-.65Z" style="fill:#92E3A9"></path><path d="M316.65,215.32s47.13,4.67,71,33.88c0,0,25.24-33.84,70.57-33.15a91.6,91.6,0,1,0-141.59-.65Z" style="fill:#fff;opacity:0.5"></path><polygon points="386.11 72.46 384.51 432.76 392.47 432.76 386.11 72.46" style="fill:#263238"></polygon><path d="M388.49,240.3S404.4,211.66,433,202.91c0,0-30.23,7.16-45.34,31.82Z" style="fill:#263238"></path><path d="M388.49,159.16S404.4,130.53,433,121.78c0,0-30.23,7.16-45.34,31.81Z" style="fill:#263238"></path><path d="M388.49,199.73S404.4,171.09,433,162.34c0,0-30.23,7.16-45.34,31.82Z" style="fill:#263238"></path><path d="M386.13,179.84s-15.35-28.63-43-37.38c0,0,29.17,7.16,43.75,31.82Z" style="fill:#263238"></path><path d="M386.13,219.61s-15.35-28.63-43-37.38c0,0,29.17,7.16,43.75,31.82Z" style="fill:#263238"></path><path d="M169.16,252.67s39,3.87,58.81,28.06c0,0,20.9-28,58.44-27.45a75.87,75.87,0,1,0-117.26-.54Z" style="fill:#92E3A9"></path><path d="M169.16,252.67s39,3.87,58.81,28.06c0,0,20.9-28,58.44-27.45a75.87,75.87,0,1,0-117.26-.54Z" style="fill:#fff;opacity:0.30000000000000004"></path><polygon points="226.68 134.35 225.37 432.76 231.95 432.76 226.68 134.35" style="fill:#263238"></polygon><path d="M228.66,273.36s13.17-23.72,36.89-31c0,0-25,5.93-37.55,26.35Z" style="fill:#263238"></path><path d="M228.66,206.16s13.17-23.72,36.89-31c0,0-25,5.93-37.55,26.36Z" style="fill:#263238"></path><path d="M228.66,239.76s13.17-23.72,36.89-31c0,0-25,5.93-37.55,26.36Z" style="fill:#263238"></path><path d="M226.71,223.29s-12.72-23.72-35.6-31c0,0,24.15,5.93,36.23,26.36Z" style="fill:#263238"></path><path d="M226.71,256.23s-12.72-23.72-35.6-31c0,0,24.15,5.93,36.23,26.36Z" style="fill:#263238"></path></g><g id="freepik--Plants--inject-32"><path d="M261.13,432.42c-.14-3.13.27-9.07,3.64-18,5.28-14,14.53,14,14.53,14s0-3.33,9.91-14,18.49,8,18.49,8-4.62-44.66,6.61-41.33,9.9,41.33,9.9,41.33,7.93-28,18.5-28,13.21,20,13.21,20,2.64-35.33,13.21-36,22.45,29.34,22.45,29.34-3.3-40,7.27-42,14.53,14.66,14.53,14.66,9.24-55.33,27.08-48.66,2.64,68,2.64,68,17.83-42.67,32.36-32.67c13.21,9.09-3.6,56.74-6.76,65.33Z" style="fill:#92E3A9"></path><path d="M474.33,432.33s7.74-23.91,3.77-27.91S457,417.76,457,417.76s12.55-42.67-7.27-48-23.11,41.33-23.11,41.33-14.53-21.33-17.84-13.33a44.73,44.73,0,0,0-3.3,15.33s-7.26-58-23.78-55.33-1.32,60-1.32,60-9.24-20-19.81-18S346,414.42,346,414.42s-4.62-11.33-7.93-11.33-7.26,20-7.26,20-4-30.67-11.23-29.33-22.46,27.33-22.46,27.33,2.65-14.67-5.28-15.33-12.55,22.66-12.55,22.66-10.57-22-17.17-18S258.67,433,258.67,433" style="fill:none;stroke:#263238;stroke-linecap:round;stroke-linejoin:round"></path><line x1="438.67" y1="432" x2="444.42" y2="403.76" style="fill:none;stroke:#263238;stroke-linecap:round;stroke-linejoin:round"></line><line x1="397.53" y1="432.42" x2="394.22" y2="413.76" style="fill:none;stroke:#263238;stroke-linecap:round;stroke-linejoin:round"></line><line x1="314" y1="432.33" x2="318.27" y2="417.09" style="fill:none;stroke:#263238;stroke-linecap:round;stroke-linejoin:round"></line><line x1="365.16" y1="433.09" x2="357.9" y2="419.76" style="fill:none;stroke:#263238;stroke-linecap:round;stroke-linejoin:round"></line><line x1="439.8" y1="421.09" x2="434.51" y2="410.42" style="fill:none;stroke:#263238;stroke-linecap:round;stroke-linejoin:round"></line><line x1="397.53" y1="426.42" x2="402.15" y2="417.09" style="fill:none;stroke:#263238;stroke-linecap:round;stroke-linejoin:round"></line><line x1="361.86" y1="425.76" x2="365.16" y2="419.76" style="fill:none;stroke:#263238;stroke-linecap:round;stroke-linejoin:round"></line><line x1="315.33" y1="426.67" x2="312.99" y2="418.42" style="fill:none;stroke:#263238;stroke-linecap:round;stroke-linejoin:round"></line><path d="M231,432.57c.11-2.43-.2-7-2.67-14-3.87-10.87-10.66,10.87-10.66,10.87s0-2.59-7.26-10.87-13.56,6.21-13.56,6.21,3.39-34.67-4.85-32.08-7.26,32.08-7.26,32.08S179,403.08,171.2,403.08s-9.69,15.52-9.69,15.52-1.93-27.43-9.68-27.94-16.47,22.76-16.47,22.76,2.42-31-5.33-32.6-10.66,11.39-10.66,11.39-6.78-42.95-19.86-37.78-1.94,52.79-1.94,52.79S84.49,374.1,73.84,381.86c-9.69,7.06,2.64,44,5,50.71Z" style="fill:#92E3A9"></path><path d="M74.67,432.5S69,413.94,71.9,410.84s15.5,10.35,15.5,10.35-9.2-33.12,5.33-37.26,17,32.08,17,32.08,10.66-16.56,13.08-10.35a36.51,36.51,0,0,1,2.42,11.9s5.33-45,17.44-42.95,1,46.58,1,46.58,6.78-15.53,14.53-14,10.66,11.38,10.66,11.38,3.39-8.8,5.81-8.8,5.33,15.53,5.33,15.53,2.91-23.81,8.24-22.77,16.47,21.21,16.47,21.21-1.94-11.38,3.87-11.9,9.2,17.6,9.2,17.6,7.75-17.08,12.6-14S232.84,433,232.84,433" style="fill:none;stroke:#263238;stroke-linecap:round;stroke-linejoin:round"></path><line x1="100.82" y1="432.24" x2="96.6" y2="410.32" style="fill:none;stroke:#263238;stroke-linecap:round;stroke-linejoin:round"></line><line x1="131" y1="432.57" x2="133.42" y2="418.08" style="fill:none;stroke:#263238;stroke-linecap:round;stroke-linejoin:round"></line><line x1="192.26" y1="432.5" x2="189.12" y2="420.67" style="fill:none;stroke:#263238;stroke-linecap:round;stroke-linejoin:round"></line><line x1="154.73" y1="433.09" x2="160.06" y2="422.74" style="fill:none;stroke:#263238;stroke-linecap:round;stroke-linejoin:round"></line><line x1="100" y1="423.77" x2="103.87" y2="415.49" style="fill:none;stroke:#263238;stroke-linecap:round;stroke-linejoin:round"></line><line x1="131" y1="427.91" x2="127.61" y2="420.67" style="fill:none;stroke:#263238;stroke-linecap:round;stroke-linejoin:round"></line><line x1="157.15" y1="427.4" x2="154.73" y2="422.74" style="fill:none;stroke:#263238;stroke-linecap:round;stroke-linejoin:round"></line><line x1="191.28" y1="428.1" x2="193" y2="421.7" style="fill:none;stroke:#263238;stroke-linecap:round;stroke-linejoin:round"></line><line x1="17" y1="432.76" x2="494" y2="432.76" style="fill:none;stroke:#263238;stroke-linecap:round;stroke-linejoin:round"></line></g><g id="freepik--characters-2--inject-32"><path d="M381.28,349.58l-4.88,7.33-40.1,17.43s-5.58,1.05-5.58,2.79-1.05,6.63,0,7.33,8-1.75,8-1.75-2.09,2.44,0,3.14,4.18-2.44,4.18-2.44a70,70,0,0,0,5.93-4.18,19.74,19.74,0,0,0,2.44-4.19l37-9.41,7.67-11.51S380.24,352.37,381.28,349.58Z" style="fill:#b5b5b5;stroke:#263238;stroke-linecap:round;stroke-linejoin:round"></path><polygon points="384.07 333.14 379.53 348.04 391.4 355.11 396.19 343.49 384.07 333.14" style="fill:#fff;stroke:#263238;stroke-linecap:round;stroke-linejoin:round"></polygon><path d="M380,343.24l14.4,8.59-2.53,4.54-13.63-7.07A13.36,13.36,0,0,1,380,343.24Z" style="fill:#fff;stroke:#263238;stroke-linecap:round;stroke-linejoin:round"></path><path d="M351.5,422s-10.1,5.05-12.88,7.32-3.28,2-2.53,3.79h32.33l-.76-11.62Z" style="fill:#fff;stroke:#263238;stroke-linecap:round;stroke-linejoin:round"></path><path d="M368.3,431.37H336.09c-.44.47-.39.85,0,1.77h32.33Z" style="fill:#fff;stroke:#263238;stroke-linecap:round;stroke-linejoin:round"></path><path d="M394.93,361.93s-12.37-5.05-22.47-6.06-31.06-.51-32.07,4,14.9,54,14.9,54-2.78,1.77-3,3-.75,5-.75,5l16.16,2.52s.5-5.05.5-9.84-5.55-34.35-5.55-34.35l32.57,10.36-12.12,25.75s-3.78,7.58.51,11.37,11.36,3,11.36,3l57.58.76-1-9.35s-8.33-1.26-9.85-1.26-30.56-7.32-30.56-7.32,23.24-24.25,25.76-28.29a19.54,19.54,0,0,0,2.78-15.4c-1.52-6.06-2.53-7.33-2.53-7.33S419.43,371,410.34,369A41.58,41.58,0,0,1,394.93,361.93Z" style="fill:#263238;stroke:#263238;stroke-linecap:round;stroke-linejoin:round"></path><path d="M353.77,284.4s1.77,5.81,1.77,6.57-1.27,4.54-.25,5.8,4,1.52,4,1.52,4.54,5.3,6.56,7.32,4.29,2.78,6.82,1.52,4.8-4.55,4.8-4.55l4.8,4.8,11.11-12.88-4-5.05s1-5.81-2.78-13.38-16.92-9.6-25.51-8.08-10.6,6.56-10.6,7.57S353.77,284.4,353.77,284.4Z" style="fill:#fff;stroke:#263238;stroke-linecap:round;stroke-linejoin:round"></path><path d="M358.32,261.42s-5.31-4-8.84-2.27-2,3.28-2.53,6.31-9.34,3.28-9.34,8.33,6.31,6.82,7.57,7.07.26,5.81,4,5.81,4.55-2.27,4.55-2.27-2.78-8.08.25-9.34,9.85-3.79,8.84,1,2.53,6.31,4.55,5.81,4.54-.26,5,.75,3,2.78,3,.26,1.26-4.8,3.53-4.8,4,3.79,3.79,6.82a9.5,9.5,0,0,1-2,5l8.59-.51s2.27-11.36.25-19.44S378,257.38,372.2,256.62,359.07,259.15,358.32,261.42Z" style="fill:#263238;stroke:#263238;stroke-linecap:round;stroke-linejoin:round"></path><path d="M360.49,288.91c.63,1,.78,2,.35,2.25s-1.31-.25-1.93-1.21-.79-2-.35-2.25S359.86,288,360.49,288.91Z" style="fill:#263238"></path><path d="M363.77,300.25a5.58,5.58,0,0,0,4.48-5.12" style="fill:none;stroke:#263238;stroke-linecap:round;stroke-linejoin:round"></path><path d="M356.08,286.8s.42-2.35,3.2-1.28" style="fill:none;stroke:#263238;stroke-linecap:round;stroke-linejoin:round"></path><path d="M382.81,311.67s-2,16.67.25,21.72,10.36,25.25,10.36,25.25S391.65,371,396.7,374.3s24.24,3.79,31.57-.76,10.35-8.08,10.35-11.36-4.8-17.68-12.37-32.07a86.82,86.82,0,0,0-22.48-27.28c-5.3-4.29-7.32-6.31-8.33-6.31S382.31,306.88,382.81,311.67Z" style="fill:#fff;stroke:#263238;stroke-linecap:round;stroke-linejoin:round"></path><polygon points="393.42 293.24 379.78 308.64 382.56 316.98 397.96 297.03 393.42 293.24" style="fill:#fff;stroke:#263238;stroke-linecap:round;stroke-linejoin:round"></polygon><path d="M393.67,349.55s-27.78,15.91-31.31,17.18-14.9,1.26-18.19,1a2.79,2.79,0,0,0-3.28,2.77l-.5,9.6s2.77.76,4,0,2.52-3.54,2.52-3.54,4.55.51,6.06-.5a20.57,20.57,0,0,0,2.78-2.27,116.71,116.71,0,0,0,13.89-2c5.05-1.27,28.28-8.84,31.82-9.6s4.8-2.78,5.05-4S393.67,349.55,393.67,349.55Z" style="fill:#fff;stroke:#263238;stroke-linecap:round;stroke-linejoin:round"></path><path d="M362,366.83c-3.86,1.15-14.64,1.15-17.83.91a2.79,2.79,0,0,0-3.28,2.77l-.5,9.6s2.77.76,4,0,2.52-3.54,2.52-3.54,4.55.51,6.06-.5a20.57,20.57,0,0,0,2.78-2.27s4.24-.37,8.53-1Z" style="fill:#92E3A9;stroke:#263238;stroke-linecap:round;stroke-linejoin:round"></path><path d="M395.69,311.93s-4.29,4.79-3.79,8.33,1.77,29.29,1.77,29.29l14.39,5.81,4-20.45s3.29-5.31,2.78-10.36" style="fill:#fff;stroke:#263238;stroke-linecap:round;stroke-linejoin:round"></path><path d="M392.41,350.82l14.64,8.83s2,0,2.28-3.28,1.76-3.79.5-5.55-14.65-7.33-15.91-7.33S391.4,346.52,392.41,350.82Z" style="fill:#fff;stroke:#263238;stroke-linecap:round;stroke-linejoin:round"></path><path d="M451.5,422.28s7.57-6.56,8.84-6.31,11.36,9.85,11.36,9.85,9.34,5.05,9.34,5.81-1.51,1-1.51,1l-27-1Z" style="fill:#fff;stroke:#263238;stroke-linecap:round;stroke-linejoin:round"></path><path d="M481,431.63c0-.76-9.34-5.81-9.34-5.81s-10.1-9.6-11.36-9.85c-.45-.09-1.71.69-3.13,1.73l12.22,8.62,8.9,6.27,1.2.05S481,432.38,481,431.63Z" style="fill:#fff;stroke:#263238;stroke-linecap:round;stroke-linejoin:round"></path><line x1="395.18" y1="390.72" x2="392.66" y2="380.11" style="fill:none;stroke:#999;stroke-linecap:round;stroke-linejoin:round"></line><path d="M307.32,348.68c-3-1.7-7.41-4-7.41-4s-5.94-15-10.6-22-7.42-7.85-12.51-8.27-20.34,3.6-21,4.66c0,0-14.2,6.57-17.8,11.24s-2.34,40.9-2.34,40.9S220.42,381.53,216.4,393c-2.56,7.27.42,19.28,14.2,22.89a29.67,29.67,0,0,0,14.07.31,53,53,0,0,0,11.79,7.53c14.2,6.78,23.52,8.05,32.21,8.48s17.59-2.33,19.29-4,5.09-8.27-3.6-17.8c-7.49-8.23-30.09-17.39-36.19-19.76a71,71,0,0,0,1-10.77s13.14-15,14-18.44,3-17.38,3-17.38,7.21,13.15,9.33,15.05,14.41.43,15.68.43,1.91-5.51,1.91-5.51A23.67,23.67,0,0,0,307.32,348.68Z" style="fill:#fff;stroke:#263238;stroke-linecap:round;stroke-linejoin:round"></path><path d="M304.36,410.36c-7.49-8.23-30.09-17.39-36.19-19.76.19-1.11.35-2.19.47-3.21a36.68,36.68,0,0,1-17.27-.35c-16.11-4.24-19.5-12.93-19.5-12.93h-.12c-4.81,3.9-12.64,11.13-15.35,18.86-2.56,7.27.42,19.28,14.2,22.89a29.67,29.67,0,0,0,14.07.31,53,53,0,0,0,11.79,7.53c14.2,6.78,23.52,8.05,32.21,8.48s17.59-2.33,19.29-4S313.05,419.89,304.36,410.36Z" style="fill:#696969;stroke:#263238;stroke-linecap:round;stroke-linejoin:round"></path><path d="M224.87,394.46s7.63-9.33,17.6-5.51c34.83,13.35,43.66,28.19,46,34.12s1.48,9.12-.42,10.39-21.83-3.39-31.37-6.78-22.26-1.7-33.07-10.81-9.11-18-5.72-25.65" style="fill:#696969;stroke:#263238;stroke-linecap:round;stroke-linejoin:round"></path><path d="M313.05,354a23.67,23.67,0,0,0-5.73-5.3c-3-1.7-7.41-4-7.41-4s-1.71-4.32-4-9.41c-2.57,2.14-6.78,6.25-8.4,11.24,2.2,3.9,6.42,11.2,8,12.58,2.11,1.91,14.41.43,15.68.43S313.05,354,313.05,354Z" style="fill:#fff;stroke:#263238;stroke-linecap:round;stroke-linejoin:round"></path><line x1="286.13" y1="344.01" x2="285.92" y2="332.57" style="fill:none;stroke:#263238;stroke-linecap:round;stroke-linejoin:round"></line><path d="M319.93,372.79a36.39,36.39,0,0,0-6.82,3.28c-2,1.51-2.27,2.78-2.27,5.05s-4.55,5.3-2.27,5.3,4-.76,6.06-4.54,4.54-4.9,4.54-4.9a28.23,28.23,0,0,0,1,5.4,6.41,6.41,0,0,1,.26,4.8c-.51,2,2,1.52,2.77-4a20.34,20.34,0,0,0-1.51-10.35Z" style="fill:#fff;stroke:#263238;stroke-linecap:round;stroke-linejoin:round"></path><path d="M319.43,366.71s.75,4.26.5,5.23-3.79,3.68-5.05,6a7.81,7.81,0,0,0-.5,6.2c.5,1.55,2,6.58,2.77,5.23s1-2.91,1-5.81-.5-5.43,1-6.59l1.52-1.16a33.44,33.44,0,0,1,1.77,5.23c1,3.68-.76,6.78-.26,7.36s2.53.19,2.78-1.36,1.26-3.29,1.26-6.39a9.73,9.73,0,0,0-1.63-5.31,30,30,0,0,1-1.14-4C323,369,321.45,364.58,319.43,366.71Z" style="fill:#fff;stroke:#263238;stroke-linecap:round;stroke-linejoin:round"></path><path d="M327.25,359.91a62.87,62.87,0,0,1,3,5.72c.63,1.7,1.06,3.61,0,4s-1.91-2.54-2.55-3.81S324.92,359.06,327.25,359.91Z" style="fill:#92E3A9;stroke:#263238;stroke-linecap:round;stroke-linejoin:round"></path><path d="M327.25,359.91c-1.27-2.75-8.48-7-10.39-8.05-1.33-.75-5.58-.86-8-.87a5.7,5.7,0,0,0-1.75,0s-3.39,2.54-3.18,5.3a3.58,3.58,0,0,0,3,3.18h1a4.77,4.77,0,0,0,.51,3,19.16,19.16,0,0,1,3,8.69c0,2.76,3.18,1.7,3.6-.42s-.63-5.93-.63-6.78,1.69-3.18,1.69-3.18,4.67,4.87,5.3,5.93.85,6.57,2.55,7,1.69-3,1.69-3a2.55,2.55,0,0,0,2.76-2.54A16.06,16.06,0,0,0,327.25,359.91Z" style="fill:#92E3A9;stroke:#263238;stroke-linecap:round;stroke-linejoin:round"></path><path d="M322.59,360.55s3.17,1.9,3.17,3.81-.21,6.36-.21,6.36" style="fill:none;stroke:#263238;stroke-linecap:round;stroke-linejoin:round"></path><path d="M289.1,428c0,3,1.69,3.39-4.88,7.42s-16.53,1.27-26.28-.85-21.41-3.82-25.86-3.82S217,432.4,213,432.4s-10.59-.42-9.74-2.54,11.65-5.52,12.5-6.36.64-2.55,2.76-5.73a4.16,4.16,0,0,1,5.08-1.9A26.47,26.47,0,0,0,237,422.44c8,1.27,22.67,1.9,28.4,1.9s12.93,2.55,13.56,2.55" style="fill:#696969;stroke:#263238;stroke-linecap:round;stroke-linejoin:round"></path><path d="M237,422.44a26.47,26.47,0,0,1-13.36-6.57,4.16,4.16,0,0,0-5.08,1.9c-2.12,3.18-1.91,4.88-2.76,5.73s-11.66,4.24-12.5,6.36S209,432.4,213,432.4s14.63-1.7,19.08-1.7a63.66,63.66,0,0,1,6.91.57c0-.19-.08-.38-.13-.57-.62-2.64,1.16-6.09,2.15-7.73C239.54,422.81,238.17,422.63,237,422.44Z" style="fill:#fff;stroke:#263238;stroke-linecap:round;stroke-linejoin:round"></path><path d="M223.6,415.87a4.16,4.16,0,0,0-5.08,1.9c-2.12,3.18-1.91,4.88-2.76,5.73s-11.66,4.24-12.5,6.36c-.31.75.33,1.28,1.45,1.66,2.49-2.67,10.4-4.89,12.61-6.5s.56-2.16,2.89-5.34A7.09,7.09,0,0,1,225,417C224.08,416.34,223.6,415.87,223.6,415.87Z" style="fill:none;stroke:#263238;stroke-linecap:round;stroke-linejoin:round"></path><path d="M243.1,326s-8.69,3.39-10.38,10.38,1.48,50.45,1.48,51.51,5.72,2.12,14.63,3,25.43,1.06,25.43,1.06,7.21,3.17,8.69,3.17,4.66-1.9,4.66-1.9-.42,1.9,1.27,1.48,7.42-5.09,7.42-5.93-3.81-4.88-6.14-5.3-12.72,3.6-13.78,3.6-19.5-4-22.89-5.51a69,69,0,0,0-8.27-2.76l1.49-36.66" style="fill:#fff;stroke:#263238;stroke-linecap:round;stroke-linejoin:round"></path><path d="M290.16,383.44c-2.34-.43-12.72,3.6-13.78,3.6s-19.5-4-22.89-5.51a69,69,0,0,0-8.27-2.76l.81-20.09-13.49-.52c.57,13.89,1.66,29.11,1.66,29.73,0,1.06,5.72,2.12,14.63,3s25.43,1.06,25.43,1.06,7.21,3.17,8.69,3.17,4.66-1.9,4.66-1.9-.42,1.9,1.27,1.48,7.42-5.09,7.42-5.93S292.49,383.86,290.16,383.44Z" style="fill:#fff;stroke:#263238;stroke-linecap:round;stroke-linejoin:round"></path><path d="M296.3,388.74c0-.85-3.81-4.88-6.14-5.3s-12.72,3.6-13.78,3.6c-.33,0-2.35-.39-5.08-1-1,1-1.95,2.72-1.63,5.76l4.59.09s7.21,3.17,8.69,3.17,4.66-1.9,4.66-1.9-.42,1.9,1.27,1.48S296.3,389.58,296.3,388.74Z" style="fill:#92E3A9;stroke:#263238;stroke-linecap:round;stroke-linejoin:round"></path><path d="M250.1,284.45s-8.06-6.35-11.24-4.23-16.53,19.07-17.8,23.73,5.72,5.73,3.18,9.54-7.42,5.3-5.51,10,9.54,5.09,11.23,6.15,4.45,5.09,10.6,3.39,4.87-9.54,9.54-10.6,4.24-7.41,2.12-12.5-3.39-12.08-.85-15.26S250.1,284.45,250.1,284.45Z" style="fill:#263238;stroke:#263238;stroke-linecap:round;stroke-linejoin:round"></path><path d="M254.8,280.09s-6.5.37-9.57,8.49,0,20.22.9,22.21,5.6,4,8.49,2.34,6.86-7.94,9.74-9.57,8.67-8.48,8.67-8.48l4.15,5.23s2.71-.36,3.79-5.59-2.88-10.83-9.38-14.08S258.05,277.57,254.8,280.09Z" style="fill:#263238;stroke:#263238;stroke-linecap:round;stroke-linejoin:round"></path><path d="M253.91,316.67s.21,6.36,1.7,9.12,5.3,15,10.17,15.47,4.66-17.17,4.66-17.17-5.72.21-9.11-3.39S254.34,315,253.91,316.67Z" style="fill:none;stroke:#263238;stroke-linecap:round;stroke-linejoin:round"></path><path d="M273.75,289.84s-7.58,8.85-13.54,12.64-8.66,4.33-8.66,4.33,2.34-.36.72,1.27-2,2-2.89.54-4.51-2.89-5.24.72a6.54,6.54,0,0,0,4,7.4,7.65,7.65,0,0,0,4.87.36s.54,6.14,7.76,9.75,13.91-1.44,15.89-5.23,1.27-20.94.9-23.83S273.75,289.84,273.75,289.84Z" style="fill:#fff;stroke:#263238;stroke-linecap:round;stroke-linejoin:round"></path><path d="M271.93,306.92s-.43,3.39.21,3.6,3,1.06,2.12,2.34-2.12,2.12-3.6,1.48" style="fill:none;stroke:#263238;stroke-linecap:round;stroke-linejoin:round"></path><path d="M262.39,317.31s1.7,2.75,8.27,1.27" style="fill:none;stroke:#263238;stroke-linecap:round;stroke-linejoin:round"></path><path d="M266.21,308.3c0,1-.48,1.8-1.06,1.8s-1.06-.81-1.06-1.8.47-1.8,1.06-1.8S266.21,307.3,266.21,308.3Z" style="fill:#263238"></path><path d="M275.32,307.24c0,1-.47,1.8-1.06,1.8s-1.06-.81-1.06-1.8.47-1.8,1.06-1.8S275.32,306.24,275.32,307.24Z" style="fill:#263238"></path><path d="M262,305a5.3,5.3,0,0,1,4.87-1.9" style="fill:none;stroke:#263238;stroke-linecap:round;stroke-linejoin:round"></path><path d="M272.14,302.89s1.27-2.75,4-.84" style="fill:none;stroke:#263238;stroke-linecap:round;stroke-linejoin:round"></path><path d="M342.66,377.33s-20.46,6.57-26,8.59-23.74,2.27-25,4.29-10.32,13.44-12.09,20,.58,24.33,2.27,25.44c6.79,4.49,24.65,3.11,32.21,2.82,13.83-.51,27.22,4.48,35-9.6,2.52-4.55-1.12-20.48-1.62-25.78s-2.28-14.14-2.53-15.41S346.45,378.34,342.66,377.33Z" style="fill:#fff;stroke:#263238;stroke-linecap:round;stroke-linejoin:round"></path><path d="M317.07,403c10.82-3.82,20.05-15,22.92-16.88s4.44-6,4.44-6a61.36,61.36,0,0,1-14.63,7.24" style="fill:none;stroke:#263238;stroke-linecap:round;stroke-linejoin:round"></path><path d="M344.13,381.94a39.22,39.22,0,0,1-10.51,16.55" style="fill:none;stroke:#263238;stroke-linecap:round;stroke-linejoin:round"></path><path d="M295.74,390.85s3.18,1.59,14,1.59" style="fill:none;stroke:#263238;stroke-linecap:round;stroke-linejoin:round"></path><path d="M294.46,391.17s2.55,11.14,16.88,15.6" style="fill:none;stroke:#263238;stroke-linecap:round;stroke-linejoin:round"></path><path d="M291.92,395a32.87,32.87,0,0,0,8.59,9.87" style="fill:none;stroke:#263238;stroke-linecap:round;stroke-linejoin:round"></path></g><g id="freepik--character-1--inject-32"><path d="M90.94,341.77s5.65,16.11,5.65,22.61,4.52,42.11,5.08,46.07a23.32,23.32,0,0,0,2.27,7.06,51.41,51.41,0,0,0,13,8.76c8.19,4,7.91,2.83,6.5,4.52s-14.42,2-20.35,1.42-11.87,1.41-12.15-1.13-.29-12.72-.29-17.24S78.78,387,77.37,379.92s-.85-18.08-.85-18.08l-7.06-17Z" style="fill:#fff;stroke:#263238;stroke-linecap:round;stroke-linejoin:round"></path><path d="M102,420.34v4l-11.28-2.17c0,3.82.1,7.55.26,9,.28,2.54,6.21.56,12.15,1.13s18.93.28,20.35-1.42,1.69-.56-6.5-4.52a51.71,51.71,0,0,1-13-8.76S102,417.79,102,420.34Z" style="fill:#263238;stroke:#263238;stroke-linecap:round;stroke-linejoin:round"></path><path d="M67.76,343.47s.82,17.71-2,24.87c-14.13,36.17-14.69,49.74-14.69,49.74S65.22,428.81,68.33,430s4.8,1.69,2.82,3.1-19.78,1.13-22.89,1.13-10.74-2.26-11.58-3.67,2-12.72,2-12.72,1.42-28.26,1.42-34.76,7.06-19.21,7.06-21.48-1.41-19.21-1.41-19.21S62.68,346.58,67.76,343.47Z" style="fill:#fff;stroke:#263238;stroke-linecap:round;stroke-linejoin:round"></path><path d="M71.15,433.05c2-1.41.29-2-2.82-3.1s-17.24-11.87-17.24-11.87-1.41.56-1.41,2.82a5.93,5.93,0,0,1-.85,3.39s-4.52-.84-9.89-2c-.45-.09-.86-.18-1.26-.28-.73,3.37-1.5,7.65-1,8.48.84,1.41,8.47,3.67,11.58,3.67S69.18,434.47,71.15,433.05Z" style="fill:#263238;stroke:#263238;stroke-linecap:round;stroke-linejoin:round"></path><path d="M91.22,258.4l10.45,15.26,43.24-6.21v8.19S102,287.51,100.26,286.1s-16.11-8.2-16.11-8.2Z" style="fill:#b5b5b5;stroke:#263238;stroke-linecap:round;stroke-linejoin:round"></path><path d="M52.5,238.34s-3.11,18.09-3.11,25.43v26s-9,14.42-10.45,27.13-1.7,26.85-1.7,26.85,13.57,5.94,24.59,5.09A144,144,0,0,0,81.33,346l15.54-3.67L85.28,289.77s5.66-15,6.5-15.82,4-11,2.83-18.66-5.37-23.45-14.13-27.69S56.46,228.45,52.5,238.34Z" style="fill:#5e5e5e;stroke:#263238;stroke-linecap:round;stroke-linejoin:round"></path><path d="M65.38,290a24,24,0,0,1-5.58,12.47c-5,5.77-9.12,6.88-9.12,6.88S48.26,332.84,49.19,342" style="fill:none;stroke:#263238;stroke-linecap:round;stroke-linejoin:round"></path><path d="M68,290.78a31.51,31.51,0,0,1-4.1,12.28c-3.54,5.77-11,7.82-11,7.82" style="fill:none;stroke:#263238;stroke-linecap:round;stroke-linejoin:round"></path><path d="M85.57,236.36c-1.48-5.05-5.77-8.38-7.87-9.75-6.53-1.61-15.13.67-20.65,5.52-.1.6-.17,1.14-.31,1.69-.28,1.13-4.52,25.71-4.52,25.71s1,.2,2.56.48c-1.56,7.95.19,21.21.19,21.21s8.35,2.69,14.81,2.42,14-4,14-4c0-2.27,1.89-13.66,2.78-18.9l.42,0S87.54,243.14,85.57,236.36Z" style="fill:#fff;stroke:#263238;stroke-linecap:round;stroke-linejoin:round"></path><path d="M73.82,258.07s-10,10-15.08,11.57" style="fill:#fff;stroke:#263238;stroke-linecap:round;stroke-linejoin:round"></path><path d="M73.82,263.18s-5.66,5.12-10.23,8.89" style="fill:#fff;stroke:#263238;stroke-linecap:round;stroke-linejoin:round"></path><path d="M95.6,336.57a34.56,34.56,0,0,1-16.25,4.07s-8.48,3.68-21.76,3.11a45.76,45.76,0,0,1-20.15-5.92c-.15,3.6-.2,5.92-.2,5.92s13.57,5.94,24.59,5.09A144,144,0,0,0,81.33,346l15.54-3.67Z" style="fill:#fff;stroke:#263238;stroke-linecap:round;stroke-linejoin:round"></path><line x1="79.63" y1="346.58" x2="80.2" y2="315.77" style="fill:#fff;stroke:#263238;stroke-linecap:round;stroke-linejoin:round"></line><path d="M107.61,199.06v7.34s3.67,2.83,1.41,4.81a12,12,0,0,1-3.11,2.26s-1.41,6.5-4.52,9.61-4.8,2.54-9.32-.57-7.35-5.08-7.35-5.08,2.82-13.85,4.8-18.37,8.2-5.09,11.31-4.53S107.61,199.06,107.61,199.06Z" style="fill:#fff;stroke:#263238;stroke-linecap:round;stroke-linejoin:round"></path><path d="M104.52,205.85c0,.85-.38,1.54-.84,1.54s-.84-.69-.84-1.54.37-1.55.84-1.55S104.52,205,104.52,205.85Z" style="fill:#263238"></path><path d="M101.85,202.2s1.55-2.52,3.65-.42" style="fill:none;stroke:#263238;stroke-linecap:round;stroke-linejoin:round"></path><path d="M99.75,214a5.16,5.16,0,0,0,3.51,1.54" style="fill:none;stroke:#263238;stroke-linecap:round;stroke-linejoin:round"></path><path d="M95,196.68s-5.94,14.24-5.64,21.07,8,26.42,4.75,32.95S84,262,79,254.26s-6.83-10.09-10.09-5.35-7.12,13.36-14.54,13.36S38,252.48,42.45,242.09,57,227.25,63.23,217.16a69.53,69.53,0,0,0,9.5-23.45l22.85.89Z" style="fill:#263238;stroke:#263238;stroke-linecap:round;stroke-linejoin:round"></path><path d="M72.13,198.16h35.62s0-15.14-3-17.51-26.41-1.78-29.08,0S71,196.38,72.13,198.16Z" style="fill:#92E3A9;stroke:#263238;stroke-linecap:round;stroke-linejoin:round"></path><path d="M96.37,198s8.31,3.26,15.73,3.26S123.38,198,123.38,198Z" style="fill:#92E3A9;stroke:#263238;stroke-linecap:round;stroke-linejoin:round"></path><path d="M154.8,266s3.11-.56,3.11,1.7-3.67,2-6.78.85S152.26,266.6,154.8,266Z" style="fill:#b5b5b5;stroke:#263238;stroke-linecap:round;stroke-linejoin:round"></path><path d="M155.37,268.86s3.11-.57,3.11,1.7-3.68,2-6.78.84S152.83,269.43,155.37,268.86Z" style="fill:#b5b5b5;stroke:#263238;stroke-linecap:round;stroke-linejoin:round"></path><path d="M155.94,271.69s3.1-.57,3.1,1.69-3.67,2-6.78.85S153.39,272.25,155.94,271.69Z" style="fill:#b5b5b5;stroke:#263238;stroke-linecap:round;stroke-linejoin:round"></path><path d="M155.38,274.58s3.11-.57,3.11,1.69-3.68,2-6.78.85S152.84,275.14,155.38,274.58Z" style="fill:#b5b5b5;stroke:#263238;stroke-linecap:round;stroke-linejoin:round"></path><path d="M141.8,268.86s-17.52,38.43-17.52,41,0,9.32,1.7,13.28,11.87,11.3,16.39,12.15,23.74-3.67,26-4.24,8.2-16.39,7.91-19.5-7.63-15-8.76-16.95-10.45-14.7-11.58-17-4.53-8.19-4.53-8.19Z" style="fill:#fff;stroke:#263238;stroke-linecap:round;stroke-linejoin:round"></path><line x1="144.91" y1="275.64" x2="142.65" y2="292.32" style="fill:none;stroke:#263238;stroke-linecap:round;stroke-linejoin:round"></line><line x1="148.87" y1="273.66" x2="148.87" y2="295.71" style="fill:none;stroke:#263238;stroke-linecap:round;stroke-linejoin:round"></line><line x1="151.7" y1="271.4" x2="159.61" y2="296.27" style="fill:none;stroke:#263238;stroke-linecap:round;stroke-linejoin:round"></line><path d="M96,271.12s-13.84-35-17.52-36.74S63.81,233,64.94,246s22.89,40.13,25.71,40.41S137.85,272,137.85,272s15,2,16.11.28,1.41-7.91,1.41-7.91,2-4.24,0-5.65-11-.57-12.43-.57-8.2,6.78-8.2,6.78Z" style="fill:#fff;stroke:#263238;stroke-linecap:round;stroke-linejoin:round"></path><path d="M154,272.25c1.13-1.69,1.41-7.91,1.41-7.91s2-4.24,0-5.65-11-.57-12.43-.57-8.2,6.78-8.2,6.78l-7.35,1.18,1.25,8.91c5.43-1.77,9.21-3,9.21-3S152.83,274,154,272.25Z" style="fill:#92E3A9;stroke:#263238;stroke-linecap:round;stroke-linejoin:round"></path><polygon points="159.04 254.73 175.15 263.21 172.04 268.86 159.04 254.73" style="fill:#fff;stroke:#263238;stroke-linecap:round;stroke-linejoin:round"></polygon><path d="M145.76,257.56l2.26-5.94s1.7-.85,7.92.85S174.3,271.4,174.3,271.4s-8.76,6.22-10.17,6.5-6.5-15-7.06-16.39a13.36,13.36,0,0,0-1.7-2.82Z" style="fill:#fff;stroke:#263238;stroke-linecap:round;stroke-linejoin:round"></path><line x1="155.37" y1="258.69" x2="150.37" y2="255.44" style="fill:none;stroke:#263238;stroke-linecap:round;stroke-linejoin:round"></line></g><g id="freepik--trash-can--inject-32"><rect x="117.43" y="321.12" width="71.28" height="111.7" style="fill:#92E3A9;stroke:#263238;stroke-linecap:round;stroke-linejoin:round"></rect><path d="M188.54,359H117.6a1.9,1.9,0,0,1-1.9-1.9h0a1.9,1.9,0,0,1,1.9-1.9h70.94a1.9,1.9,0,0,1,1.9,1.9h0A1.9,1.9,0,0,1,188.54,359Z" style="fill:#92E3A9;stroke:#263238;stroke-linecap:round;stroke-linejoin:round"></path><path d="M188.54,322.8H117.6a1.9,1.9,0,0,1-1.9-1.9h0a1.9,1.9,0,0,1,1.9-1.9h70.94a1.9,1.9,0,0,1,1.9,1.9h0A1.9,1.9,0,0,1,188.54,322.8Z" style="fill:#92E3A9;stroke:#263238;stroke-linecap:round;stroke-linejoin:round"></path><path d="M188.54,396.84H117.6a1.9,1.9,0,0,1-1.9-1.9h0a1.9,1.9,0,0,1,1.9-1.9h70.94a1.9,1.9,0,0,1,1.9,1.9h0A1.9,1.9,0,0,1,188.54,396.84Z" style="fill:#92E3A9;stroke:#263238;stroke-linecap:round;stroke-linejoin:round"></path></g></svg>